<?plantuml 1.2026.2?><svg xmlns="http://www.w3.org/2000/svg" xmlns:xlink="http://www.w3.org/1999/xlink" contentStyleType="text/css" data-diagram-type="DESCRIPTION" height="443px" preserveAspectRatio="none" style="width:358px;height:443px;background:#FFFFFF;" version="1.1" viewBox="0 0 358 443" width="358px" zoomAndPan="magnify"><title>Metacat Application</title><defs/><g><g class="title" data-source-line="5"><text fill="#000000" font-family="sans-serif" font-size="14" font-weight="bold" lengthAdjust="spacing" textLength="142.7959" x="100.6021" y="23.5352">Metacat Application</text></g><!--cluster metacat--><g class="cluster" data-qualified-name="metacat" data-source-line="1666" id="ent0003"><rect fill="none" height="277.95" rx="12.5" ry="12.5" style="stroke:#444444;stroke-width:1;stroke-dasharray:7,7;" width="345" x="7" y="159.4683"/><text fill="#444444" font-family="sans-serif" font-size="16" font-weight="bold" lengthAdjust="spacing" textLength="64.1953" x="147.4023" y="196.937">Metacat</text><text fill="#444444" font-family="sans-serif" font-size="12" font-weight="bold" lengthAdjust="spacing" textLength="52.9922" x="153.0039" y="211.9136">[system]</text></g><!--entity mc--><g class="entity" data-qualified-name="metacat.mc" data-source-line="76" id="ent0004"><rect fill="#FFFFFF" height="52.9766" rx="12.5" ry="12.5" style="stroke:#3C7FC0;stroke-width:0.5;" width="183.1953" x="87.4" y="230.4683"/><text fill="#438DD5" font-family="sans-serif" font-size="12" font-style="italic" lengthAdjust="spacing" textLength="67.166" x="145.4146" y="252.0698">&#171;container&#187;</text><text fill="#438DD5" font-family="sans-serif" font-size="16" font-weight="bold" lengthAdjust="spacing" textLength="64.1953" x="97.4" y="270.0698">Metacat</text><text fill="#438DD5" font-family="sans-serif" font-size="16" font-weight="bold" lengthAdjust="spacing" textLength="5.2734" x="161.5953" y="270.0698">&#160;</text><text fill="#438DD5" font-family="sans-serif" font-size="16" font-weight="bold" lengthAdjust="spacing" textLength="93.7266" x="166.8688" y="270.0698">Application</text></g><!--entity pg--><g class="entity" data-qualified-name="metacat.pg" data-source-line="80" id="ent0005"><path d="M23.25,369.4383 C23.25,359.4383 110,359.4383 110,359.4383 C110,359.4383 196.75,359.4383 196.75,369.4383 L196.75,411.4148 C196.75,421.4148 110,421.4148 110,421.4148 C110,421.4148 23.25,421.4148 23.25,411.4148 L23.25,369.4383" fill="#FFFFFF" style="stroke:#3C7FC0;stroke-width:0.5;"/><path d="M23.25,369.4383 C23.25,379.4383 110,379.4383 110,379.4383 C110,379.4383 196.75,379.4383 196.75,369.4383" fill="none" style="stroke:#3C7FC0;stroke-width:0.5;"/><text fill="#438DD5" font-family="sans-serif" font-size="12" font-style="italic" lengthAdjust="spacing" textLength="67.166" x="76.417" y="395.0398">&#171;container&#187;</text><text fill="#438DD5" font-family="sans-serif" font-size="16" font-weight="bold" lengthAdjust="spacing" textLength="71.8125" x="33.25" y="413.0398">Postgres</text><text fill="#438DD5" font-family="sans-serif" font-size="16" font-weight="bold" lengthAdjust="spacing" textLength="5.2734" x="105.0625" y="413.0398">&#160;</text><text fill="#438DD5" font-family="sans-serif" font-size="16" font-weight="bold" lengthAdjust="spacing" textLength="76.4141" x="110.3359" y="413.0398">Database</text></g><!--entity hs--><g class="entity" data-qualified-name="metacat.hs" data-source-line="80" id="ent0006"><path d="M232.08,369.4383 C232.08,359.4383 284.0019,359.4383 284.0019,359.4383 C284.0019,359.4383 335.9238,359.4383 335.9238,369.4383 L335.9238,411.4148 C335.9238,421.4148 284.0019,421.4148 284.0019,421.4148 C284.0019,421.4148 232.08,421.4148 232.08,411.4148 L232.08,369.4383" fill="#FFFFFF" style="stroke:#3C7FC0;stroke-width:0.5;"/><path d="M232.08,369.4383 C232.08,379.4383 284.0019,379.4383 284.0019,379.4383 C284.0019,379.4383 335.9238,379.4383 335.9238,369.4383" fill="none" style="stroke:#3C7FC0;stroke-width:0.5;"/><text fill="#438DD5" font-family="sans-serif" font-size="12" font-style="italic" lengthAdjust="spacing" textLength="67.166" x="250.4189" y="395.0398">&#171;container&#187;</text><text fill="#438DD5" font-family="sans-serif" font-size="16" font-weight="bold" lengthAdjust="spacing" textLength="83.8438" x="242.08" y="413.0398">Hashstore</text></g><!--entity client--><g class="entity" data-qualified-name="client" data-source-line="76" id="ent0002"><rect fill="#FFFFFF" height="52.9766" rx="12.5" ry="12.5" style="stroke:#3C7FC0;stroke-width:0.5;" width="89.166" x="134.42" y="44.4883"/><text fill="#438DD5" font-family="sans-serif" font-size="12" font-style="italic" lengthAdjust="spacing" textLength="67.166" x="145.42" y="66.0898">&#171;container&#187;</text><text fill="#438DD5" font-family="sans-serif" font-size="16" font-weight="bold" lengthAdjust="spacing" textLength="48.1719" x="154.9171" y="84.0898">Client</text></g><!--link mc to hs--><g class="link" data-entity-1="ent0004" data-entity-2="ent0006" data-link-type="dependency" data-source-line="1779" id="lnk7"><path d="M199.74,283.9283 C217.08,305.6283 236.8185,330.3465 254.9985,353.1165" fill="none" id="mc-to-hs" style="stroke:#666666;stroke-width:1;"/><polygon fill="#666666" points="259.99,359.3683,257.3429,351.2447,252.6541,354.9883,259.99,359.3683" style="stroke:#666666;stroke-width:1;"/><text fill="#666666" font-family="sans-serif" font-size="12" font-weight="bold" lengthAdjust="spacing" textLength="38.6543" x="235.65" y="326.0398">Stores</text><text fill="#666666" font-family="sans-serif" font-size="12" font-weight="bold" lengthAdjust="spacing" textLength="3.9551" x="274.3043" y="326.0398">&#160;</text><text fill="#666666" font-family="sans-serif" font-size="12" font-weight="bold" lengthAdjust="spacing" textLength="37.8926" x="278.2594" y="326.0398">object</text></g><!--link mc to pg--><g class="link" data-entity-1="ent0004" data-entity-2="ent0005" data-link-type="dependency" data-source-line="1779" id="lnk8"><path d="M93.13,283.7783 C80.37,291.3283 68.89,301.0183 61,313.4383 C51.41,328.5483 54.7165,339.3326 67.2765,353.2326" fill="none" id="mc-to-pg" style="stroke:#666666;stroke-width:1;"/><polygon fill="#666666" points="72.64,359.1683,69.5024,351.2212,65.0506,355.2439,72.64,359.1683" style="stroke:#666666;stroke-width:1;"/><text fill="#666666" font-family="sans-serif" font-size="12" font-weight="bold" lengthAdjust="spacing" textLength="38.6543" x="62" y="326.0398">Stores</text><text fill="#666666" font-family="sans-serif" font-size="12" font-weight="bold" lengthAdjust="spacing" textLength="3.9551" x="100.6543" y="326.0398">&#160;</text><text fill="#666666" font-family="sans-serif" font-size="12" font-weight="bold" lengthAdjust="spacing" textLength="44.0977" x="104.6094" y="326.0398">system</text><text fill="#666666" font-family="sans-serif" font-size="12" font-weight="bold" lengthAdjust="spacing" textLength="3.9551" x="148.707" y="326.0398">&#160;</text><text fill="#666666" font-family="sans-serif" font-size="12" font-weight="bold" lengthAdjust="spacing" textLength="57.5098" x="152.6621" y="326.0398">metadata</text></g><!--link client to mc--><g class="link" data-entity-1="ent0002" data-entity-2="ent0004" data-link-type="dependency" data-source-line="1779" id="lnk9"><path d="M179,97.9483 C179,133.0083 179,187.1183 179,222.1183" fill="none" id="client-to-mc" style="stroke:#666666;stroke-width:1;"/><polygon fill="#666666" points="179,230.1183,182,222.1183,176,222.1183,179,230.1183" style="stroke:#666666;stroke-width:1;"/><text fill="#666666" font-family="sans-serif" font-size="12" font-weight="bold" lengthAdjust="spacing" textLength="54.2988" x="180" y="140.0698">Interacts</text><text fill="#666666" font-family="sans-serif" font-size="12" font-weight="bold" lengthAdjust="spacing" textLength="3.9551" x="234.2988" y="140.0698">&#160;</text><text fill="#666666" font-family="sans-serif" font-size="12" font-weight="bold" lengthAdjust="spacing" textLength="18.0762" x="238.2539" y="140.0698">via</text><text fill="#666666" font-family="sans-serif" font-size="12" font-weight="bold" lengthAdjust="spacing" textLength="3.9551" x="256.3301" y="140.0698">&#160;</text><text fill="#666666" font-family="sans-serif" font-size="12" font-weight="bold" lengthAdjust="spacing" textLength="20.1738" x="260.2852" y="140.0698">API</text></g><?plantuml-src RP1FQyCm3CNl_XHkJYci3OEU1ZjqQQ25_WbDI-afA8vfF1mxsCf66VlkKx9qtM0-2RsVtfCysYQdF9xbsU6yJfuVsKWPeTjIyWgnyKzHvE1zUb5OjKNhfHFMe3Gu5RQE6Wq6srfFF9PQ5L4ycwHTwxXPHpLub8vQUKmJe8nqquPObYrtfpnDzjbkc--EX_LgcuHZnb2XbdmZ4GGWdpUDLbGeQnZxCGY5LfJzm8EuBmAQowwKK-SljZKbk6jOVpiGCtW5O_x1EBsxJItkykyeyli3BegmkH2QMeyN9prV0481Nlu3Lfx09VZAetKTyCdONke-gzUohk-vBLwbw3Q_YNt28Fh-6DxTK5BKGDskxjTUqVSx4EZvcm8-JrV1-0i0?></g></svg>